<svg width="120" height="95" viewBox="0 0 120 95" fill="none" xmlns="http://www.w3.org/2000/svg"><path fill-rule="evenodd" clip-rule="evenodd" d="M67.1994 10.5502C66.1334 8.9686 64.6269 6.86689 62.4684 5.48024C60.4091 4.15732 57.6562 3.41863 53.8165 4.80177C49.1642 6.47764 47.2412 10.2775 47.3374 14.6686C47.436 19.1719 49.7006 24.0959 53.3003 27.2623L54.1489 28.0088L54.1489 28.0088L54.1492 28.009L54.1493 28.0092C60.6305 33.7111 65.6724 38.1467 68.884 40.4789C72.0955 38.1467 77.1369 33.7113 83.6176 28.0097L83.6178 28.0095L83.6186 28.0089L83.6187 28.0088L84.4671 27.2623C88.0667 24.096 90.3313 19.1719 90.4299 14.6686C90.526 10.2774 88.6031 6.47762 83.951 4.80176C80.1115 3.41863 77.3587 4.15732 75.2995 5.48022C73.1411 6.86686 71.6347 8.96855 70.5687 10.5502C70.4904 10.6726 70.3979 10.7876 70.2918 10.8925C70.126 11.0571 69.9355 11.1881 69.7306 11.2836C69.1841 11.5397 68.5629 11.5285 68.0371 11.2835C67.8324 11.188 67.6423 11.0571 67.4766 10.8928C67.3704 10.7878 67.2778 10.6728 67.1994 10.5502ZM68.884 6.06282C67.8164 4.72852 66.4137 3.26046 64.6304 2.11484C61.5809 0.155822 57.5331 -0.788639 52.4609 1.03849C45.8813 3.4086 43.2123 9.00143 43.3384 14.7562C43.4619 20.3987 46.2336 26.3736 50.6585 30.2657L51.7992 31.2694L51.7993 31.2694C58.7841 37.4155 64.3997 42.3569 67.7479 44.5586C67.8446 44.6252 67.9464 44.6828 68.0521 44.731C68.3189 44.8534 68.6029 44.9125 68.8843 44.9122C69.287 44.9117 69.6846 44.7899 70.0201 44.5586C73.3681 42.357 78.9835 37.4157 85.9681 31.2696L85.9681 31.2696L85.9684 31.2694L87.1091 30.2657C91.5338 26.3735 94.3054 20.3987 94.4289 14.7561C94.5549 9.00147 91.8861 3.40863 85.3067 1.03849C80.2346 -0.788647 76.1869 0.155824 73.1375 2.11486C71.3542 3.26047 69.9516 4.72852 68.884 6.06282ZM0.767578 49.5044C0.767578 48.3998 1.66301 47.5044 2.76758 47.5044H31.1504V53.3628H41.8764C43.621 53.2981 47.6215 53.7573 51.0037 56.1249C53.5893 57.9347 58.0952 59.7664 60.3517 60.5645H77.4549C78.8558 60.5645 80.6603 60.8406 82.1819 61.8163C83.8255 62.8702 84.9712 64.6451 84.9712 67.1532C84.9712 67.5216 84.9576 67.8837 84.9283 68.238C88.387 66.6804 92.4306 64.7291 96.0909 62.9313C97.9281 62.0288 99.6849 61.1568 101.216 60.3967L101.22 60.395C103.78 59.1241 105.71 58.1662 106.33 57.9028C107.995 57.1965 110.158 56.5773 112.341 56.8093C114.652 57.055 116.847 58.2489 118.315 60.8514C119.574 63.084 119.437 65.2985 118.507 67.1632C117.63 68.921 116.098 70.2943 114.612 71.2574L114.518 71.3181L114.419 71.3681C103.622 76.7662 80.217 89.5485 75.2364 92.4782C69.7684 95.6947 63.355 94.5431 61.311 94.176C61.2743 94.1694 61.2389 94.1631 61.205 94.157C61.1412 94.1456 61.0825 94.1352 61.0291 94.126L60.8805 94.1004L38.7162 86.7243H31.1504V90.3267H9.46584C8.36127 90.3267 7.46584 89.4313 7.46584 88.3267C7.46584 87.2221 8.36127 86.3267 9.46584 86.3267H27.1504V51.5044H2.76758C1.66301 51.5044 0.767578 50.609 0.767578 49.5044ZM31.1504 82.7243H39.3643L61.8585 90.2102L61.9206 90.221C63.988 90.5821 69.0637 91.4685 73.2083 89.0305C78.2572 86.0606 101.609 73.3074 112.525 67.8425C113.635 67.1076 114.498 66.2384 114.928 65.3775C115.315 64.6006 115.384 63.7975 114.831 62.8167C114.031 61.3982 113.012 60.9031 111.918 60.7869C110.697 60.6571 109.263 61.0033 107.893 61.5849C107.378 61.8036 105.691 62.6412 103.324 63.8163L103.324 63.8163C101.753 64.5967 99.8815 65.5259 97.8543 66.5216C92.8641 68.9726 87.036 71.7717 82.9351 73.4622C82.6035 73.5989 82.2563 73.6399 81.9242 73.5979C80.6861 74.3054 79.2209 74.5362 77.7408 74.5362C77.1167 74.5362 75.9801 74.5325 74.5431 74.5279C70.1847 74.5136 63.0626 74.4904 59.0911 74.5343C58.3217 74.6773 57.2344 74.9918 56.3532 75.4657C55.3057 76.029 55.1822 76.453 55.1768 76.5389C55.1079 77.6413 54.1584 78.4792 53.056 78.4103C51.9536 78.3414 51.1157 77.3918 51.1846 76.2894C51.327 74.0117 53.1425 72.6506 54.4587 71.9428C55.885 71.1758 57.5029 70.7424 58.5765 70.5635L58.7281 70.5382L58.8817 70.5364C62.854 70.4897 70.195 70.5136 74.6068 70.528C76.0224 70.5326 77.1364 70.5362 77.7408 70.5362C79.2507 70.5362 79.9278 70.2099 80.2588 69.8855C80.5831 69.5675 80.9712 68.8613 80.9712 67.1532C80.9712 66.0375 80.5445 65.518 80.0228 65.1835C79.3791 64.7708 78.4254 64.5645 77.4549 64.5645H59.6799L59.3646 64.4564C57.1836 63.7086 51.9089 61.6411 48.7099 59.4018C46.2136 57.6544 43.1158 57.3125 42.0033 57.3609L41.9598 57.3628H31.1504V82.7243Z" fill="#00609C"></path></svg>